<svg version="1.1" xmlns="http://www.w3.org/2000/svg" viewBox="0 0 1216 547" width="1216" height="547" filter="invert(93%) hue-rotate(180deg)">
  <!-- svg-source:excalidraw -->
  
  <defs>
    <style class="style-fonts">
      @font-face {
        font-family: "Virgil";
        src: url("https://excalidraw.com/Virgil.woff2");
      }
      @font-face {
        font-family: "Cascadia";
        src: url("https://excalidraw.com/Cascadia.woff2");
      }
    </style>
  </defs>
  <rect x="0" y="0" width="1216" height="547" fill="#ffffff"></rect><g stroke-linecap="round" transform="translate(617 46) rotate(0 294.5 205)"><path d="M0.02 -0.66 C177.3 -1.38, 355.69 -1.82, 589.67 0.37 M0.26 0.27 C190.67 -0.71, 381.1 -0.71, 588.85 0.28 M588.28 -1.02 C586.23 114.31, 587.81 227.18, 588.85 409 M588.58 -0.24 C590.77 121.13, 590.8 241.29, 589.35 409.5 M588.24 409.78 C373.09 410.88, 159.28 410.45, -0.78 409.75 M589.33 410.33 C394.54 409.73, 199.23 409.94, 0 410.16 M0.45 409.62 C2.27 280.16, 2.46 148.16, -0.18 0.25 M-0.22 409.5 C-0.16 313.94, -0.22 216.52, -0.43 -0.36" stroke="#000000" stroke-width="1" fill="none"></path></g><g transform="translate(626 10) rotate(0 14 13)"><text x="0" y="18" font-family="Virgil, Segoe UI Emoji" font-size="20px" fill="#000000" text-anchor="start" style="white-space: pre;" direction="ltr">VM</text></g><g stroke-linecap="round" transform="translate(10 95) rotate(0 243 221)"><path d="M0.83 -0.44 C98.85 -2.22, 199.17 -2.21, 486.55 -0.23 M-0.13 -0.28 C101.98 -0.49, 204.24 -0.28, 486.03 0.27 M486.45 0.47 C487.47 89.94, 486.83 179.34, 485.39 442.86 M486 0.4 C487.79 134.73, 488.13 270.02, 486.28 442.07 M485.28 442.74 C327.75 443.4, 168.57 443.99, -0.8 441.67 M485.88 442.33 C379.03 441.37, 272.41 441.17, -0.35 441.76 M0.68 442.29 C0.28 328.11, -0.56 211.89, -0.08 0.61 M-0.25 441.52 C1.71 334.85, 1.88 227.25, -0.26 0.35" stroke="#000000" stroke-width="1" fill="none"></path></g><g transform="translate(32 52) rotate(0 57 13)"><text x="0" y="18" font-family="Virgil, Segoe UI Emoji" font-size="20px" fill="#000000" text-anchor="start" style="white-space: pre;" direction="ltr">our machine</text></g><g stroke-linecap="round" transform="translate(43 136) rotate(0 157 34)"><path d="M0.9 1.2 C66.1 0.46, 134.33 0.97, 314.34 -0.28 M-0.33 0.54 C111.83 -1.79, 224.81 -0.81, 313.4 0.06 M313.21 -1.06 C314.07 17.72, 312.41 34.2, 314.46 68.96 M314.24 -0.57 C313.74 20.96, 313.65 42.31, 314.17 67.29 M313.79 68.18 C206.02 67.86, 95.8 68, -1.35 68.68 M313.7 67.8 C246.77 68.61, 179.24 68.76, -0.01 68 M0.52 69.2 C-0.57 52.97, -0.56 35.09, 1.19 0.53 M-0.23 67.39 C-0.3 46.27, 1.46 24.19, -0.61 0.74" stroke="#000000" stroke-width="1" fill="none"></path></g><g transform="translate(46 99) rotate(0 81 13)"><text x="0" y="18" font-family="Virgil, Segoe UI Emoji" font-size="20px" fill="#000000" text-anchor="start" style="white-space: pre;" direction="ltr">docker container</text></g><g transform="translate(75 144) rotate(0 136 26)"><text x="0" y="18" font-family="Virgil, Segoe UI Emoji" font-size="20px" fill="#000000" text-anchor="start" style="white-space: pre;" direction="ltr">- staticly exported NextJS</text><text x="0" y="44" font-family="Virgil, Segoe UI Emoji" font-size="20px" fill="#000000" text-anchor="start" style="white-space: pre;" direction="ltr">- pocketbase instance</text></g><g stroke-linecap="round" transform="translate(643 70) rotate(0 270 185.5)"><path d="M-0.61 -0.27 C171.45 1.45, 341.62 1.85, 540.79 -0.18 M-0.14 0.11 C205.53 0.27, 410.08 -0.16, 540.37 0.04 M539.69 -0.64 C541.23 143.89, 540.52 288.7, 539.92 371.88 M539.71 0.41 C541.43 97.54, 541.09 195.66, 540.48 371.07 M540.15 370.84 C392.75 368.88, 245.33 368.56, -0.04 370.48 M539.74 370.8 C340.05 371.89, 140.37 371.78, -0.13 371.02 M-0.9 371.08 C-2.1 273.46, -0.7 175.06, -0.29 1 M0.01 371.23 C1.44 242.09, 1.21 113.57, 0 -0.42" stroke="#000000" stroke-width="1" fill="none"></path></g><g transform="translate(647 47) rotate(0 34 13)"><text x="0" y="18" font-family="Virgil, Segoe UI Emoji" font-size="20px" fill="#000000" text-anchor="start" style="white-space: pre;" direction="ltr">Docker</text></g><g stroke-linecap="round" transform="translate(664 127) rotate(0 106.5 52)"><path d="M-0.33 1.7 C84.02 1.55, 170.29 0.74, 212 -1.26 M-0.16 0.45 C65.28 2.08, 129.91 2.44, 212.78 0.63 M213.82 -0.86 C212.48 37.8, 211.18 73.17, 211.97 102.23 M213 1 C213.68 38.64, 213.62 77.67, 213.19 103.11 M213.87 103.04 C127.48 106.07, 43.18 102.98, 0.12 103.24 M213.41 103.13 C130.3 103.68, 46.88 102.64, -0.83 104.09 M-0.77 105.75 C0.88 72.19, -1.91 38.31, -1.22 -0.92 M-0.77 104.56 C-0.75 67.22, -0.14 28.44, -0.87 0.63" stroke="#000000" stroke-width="1" fill="none"></path></g><g transform="translate(668 88) rotate(0 79 13)"><text x="0" y="18" font-family="Virgil, Segoe UI Emoji" font-size="20px" fill="#000000" text-anchor="start" style="white-space: pre;" direction="ltr">echo web server</text></g><g stroke-linecap="round" transform="translate(932 257) rotate(0 47 24)"><path d="M-1.26 -0.09 C32.13 -0.76, 63.25 -0.65, 95.55 1.32 M0.61 0.06 C23.44 -0.24, 48.42 -0.72, 93.08 0.46 M92.96 0.27 C95.35 11.3, 94.32 26.09, 92.87 47.02 M94.22 0.77 C93.61 17.64, 93.54 34.21, 93.25 47.33 M95.83 46.94 C58.05 48.99, 25.9 49.97, -1.61 48.86 M93.32 47.43 C62.78 47.95, 33.97 48.79, 0.75 48.22 M-1.15 47.65 C-0.21 34.41, 1.13 20.94, 1.2 -0.41 M0.66 48.53 C0.34 32.16, 1.05 17.24, 0.97 0.66" stroke="#000000" stroke-width="1" fill="none"></path></g><g transform="translate(953 264) rotate(0 25 13)"><text x="0" y="18" font-family="Virgil, Segoe UI Emoji" font-size="20px" fill="#000000" text-anchor="start" style="white-space: pre;" direction="ltr">App 1</text></g><g stroke-linecap="round" transform="translate(930 323) rotate(0 47 24)"><path d="M0.23 -0.56 C26.85 1.52, 50.95 0.6, 92.22 1.83 M0.76 0.68 C19.69 -0.11, 40.35 -1.41, 93.23 0.88 M92.56 -1.45 C94.12 15.22, 95.17 32.43, 92.02 48.73 M94.46 -0.34 C93.31 19.17, 92.81 36.85, 94.22 47.8 M92.25 46.73 C66.83 50.4, 40.62 50.19, 1.99 46.62 M93.06 48.11 C68.14 48.28, 42.78 48.85, -0.12 47.62 M1.11 49.74 C-1.28 33.3, 0.74 18.85, 1.32 -1.45 M-0.78 47.4 C-0.14 38.12, -0.32 26.93, -0.37 0.67" stroke="#000000" stroke-width="1" fill="none"></path></g><g transform="translate(951 330) rotate(0 29.5 13)"><text x="0" y="18" font-family="Virgil, Segoe UI Emoji" font-size="20px" fill="#000000" text-anchor="start" style="white-space: pre;" direction="ltr">App 2</text></g><g stroke-linecap="round" transform="translate(1054 277) rotate(0 47 24)"><path d="M1.05 1.42 C28.96 -0.89, 58.11 -1.39, 92.63 1.11 M0.22 -0.89 C37.06 -0.24, 71.99 0.25, 93.46 -0.78 M93.13 0.07 C93.14 12.86, 94.36 22.29, 93.36 46.27 M93.06 0.7 C94.37 18.3, 94.76 37.75, 93.12 48.89 M94.18 46.46 C67.5 48.65, 41.06 46.45, -0.73 48.4 M93.5 47.97 C71.89 47.71, 48.27 47.92, 0.62 48.18 M-1.33 49.19 C-0.41 34.95, -1.16 23.77, 0.38 -0.06 M-0.99 48.56 C-0.44 31.55, -0.55 13.45, -0.76 0.25" stroke="#000000" stroke-width="1" fill="none"></path></g><g transform="translate(1075 284) rotate(0 29 13)"><text x="0" y="18" font-family="Virgil, Segoe UI Emoji" font-size="20px" fill="#000000" text-anchor="start" style="white-space: pre;" direction="ltr">App 3</text></g><g stroke-linecap="round"><g transform="translate(359 158.03086938816568) rotate(0 148.34573797813152 -0.41427130496163045)"><path d="M0.64 1 C49.98 0.87, 247.81 -1.46, 297.18 -1.83 M-0.48 0.48 C48.62 0.66, 246.91 0.37, 296.32 -0.25" stroke="#000000" stroke-width="1" fill="none"></path></g><g transform="translate(359 158.03086938816568) rotate(0 148.34573797813152 -0.41427130496163045)"><path d="M269.86 10.47 C279.43 5.63, 291.44 3.25, 296.84 -1.5 M268.87 10.45 C278.9 6.86, 290.09 1.65, 297.14 0.12" stroke="#000000" stroke-width="1" fill="none"></path></g><g transform="translate(359 158.03086938816568) rotate(0 148.34573797813152 -0.41427130496163045)"><path d="M269.73 -10.05 C279.18 -6.85, 291.23 -1.19, 296.84 -1.5 M268.74 -10.07 C278.98 -6, 290.21 -3.56, 297.14 0.12" stroke="#000000" stroke-width="1" fill="none"></path></g></g><g transform="translate(419 127) rotate(0 35 13)"><text x="0" y="18" font-family="Virgil, Segoe UI Emoji" font-size="20px" fill="#000000" text-anchor="start" style="white-space: pre;" direction="ltr">/stats</text></g><g stroke-linecap="round"><g transform="translate(653 185.28174894083804) rotate(0 -143.39981105476613 1.6454342501222072)"><path d="M-0.15 0.35 C-47.94 0.87, -238.88 3.38, -286.65 3.8 M-1.69 -0.51 C-49.09 -0.43, -237.18 1.1, -284.27 1.83" stroke="#000000" stroke-width="1" fill="none"></path></g><g transform="translate(653 185.28174894083804) rotate(0 -143.39981105476613 1.6454342501222072)"><path d="M-255.61 -9.83 C-264.22 -6.83, -274.37 -0.66, -284.18 0.25 M-255.5 -9.61 C-265.13 -5.38, -272.1 -2.45, -283.78 2.46" stroke="#000000" stroke-width="1" fill="none"></path></g><g transform="translate(653 185.28174894083804) rotate(0 -143.39981105476613 1.6454342501222072)"><path d="M-255.38 10.69 C-264.19 7.43, -274.4 7.34, -284.18 0.25 M-255.27 10.91 C-264.82 9.21, -271.86 6.2, -283.78 2.46" stroke="#000000" stroke-width="1" fill="none"></path></g></g><g transform="translate(452 196) rotate(0 20 13)"><text x="0" y="18" font-family="Virgil, Segoe UI Emoji" font-size="20px" fill="#000000" text-anchor="start" style="white-space: pre;" direction="ltr">SSE</text></g><g stroke-linecap="round" transform="translate(61 419) rotate(0 159 45.5)"><path d="M0.51 0.01 C101.88 -0.44, 203.46 -0.38, 316.7 0.9 M-0.57 -0.42 C99.41 -0.91, 198.78 -1.62, 317.92 0.13 M318.8 -1.45 C317.78 20.4, 316.7 40.19, 316.15 89.63 M317.54 0.71 C316.93 31.74, 318.37 64.36, 318.68 90.44 M317.36 90.42 C205.47 91.07, 92.12 92.94, -0.86 90.28 M318.38 91.61 C242.81 93.64, 167.47 93.06, 0.4 90.54 M-0.92 91.36 C-0.24 64.04, 1.15 36.74, -0.23 -0.09 M-0.05 91.78 C0.43 68.01, 0.62 44.46, 0.78 0.68" stroke="#000000" stroke-width="1" fill="none"></path></g><g transform="translate(70 380) rotate(0 60 13)"><text x="0" y="18" font-family="Virgil, Segoe UI Emoji" font-size="20px" fill="#000000" text-anchor="start" style="white-space: pre;" direction="ltr">Web browser</text></g><g stroke-linecap="round"><g transform="translate(230 407) rotate(0 -3.1524971049791475 -96.54838077435716)"><path d="M-0.86 0.92 C-2.24 -31.03, -6.51 -159.87, -7.19 -192.28 M0.89 0.36 C-0.24 -31.89, -4.1 -161.88, -5.11 -194.02" stroke="#000000" stroke-width="1" fill="none"></path></g><g transform="translate(230 407) rotate(0 -3.1524971049791475 -96.54838077435716)"><path d="M7.55 -168.14 C3 -175.4, -3.41 -186.34, -3.45 -194.97 M6.43 -166.27 C1.08 -176.96, -2.12 -186.65, -5.74 -194.1" stroke="#000000" stroke-width="1" fill="none"></path></g><g transform="translate(230 407) rotate(0 -3.1524971049791475 -96.54838077435716)"><path d="M-12.97 -167.52 C-9.49 -174.88, -7.87 -186.05, -3.45 -194.97 M-14.08 -165.65 C-11.77 -176.47, -7.32 -186.39, -5.74 -194.1" stroke="#000000" stroke-width="1" fill="none"></path></g></g><g stroke-linecap="round"><g transform="translate(304 212) rotate(0 0.9987770157167688 97.4164323790651)"><path d="M0.37 0.56 C0.87 32.9, 2.79 161.41, 2.9 193.67 M-0.9 -0.2 C-0.47 32.35, 1.71 162.42, 2.42 195.03" stroke="#000000" stroke-width="1" fill="none"></path></g><g transform="translate(304 212) rotate(0 0.9987770157167688 97.4164323790651)"><path d="M-7.44 168.53 C-5.86 173.51, -1.98 183.49, 3.92 193.41 M-9.33 167.16 C-5.12 177.49, -0.93 189.05, 2.79 194.94" stroke="#000000" stroke-width="1" fill="none"></path></g><g transform="translate(304 212) rotate(0 0.9987770157167688 97.4164323790651)"><path d="M13.08 168.14 C8.66 173.3, 6.54 183.39, 3.92 193.41 M11.19 166.77 C7.46 177.44, 3.72 189.16, 2.79 194.94" stroke="#000000" stroke-width="1" fill="none"></path></g></g><g transform="translate(197 283.99999999999955) rotate(0 3.5 13)"><text x="0" y="18" font-family="Virgil, Segoe UI Emoji" font-size="20.00000000000022px" fill="#000000" text-anchor="start" style="white-space: pre;" direction="ltr">1</text></g><g transform="translate(369 122) rotate(0 11 18)"><text x="0" y="25" font-family="Virgil, Segoe UI Emoji" font-size="27.5px" fill="#000000" text-anchor="start" style="white-space: pre;" direction="ltr">2</text></g><g transform="translate(581 195) rotate(0 10.5 18)"><text x="0" y="25" font-family="Virgil, Segoe UI Emoji" font-size="27.50000000000006px" fill="#000000" text-anchor="start" style="white-space: pre;" direction="ltr">3</text></g><g transform="translate(317 283) rotate(0 9 16)"><text x="0" y="22" font-family="Virgil, Segoe UI Emoji" font-size="24.615384615384748px" fill="#000000" text-anchor="start" style="white-space: pre;" direction="ltr">4</text></g><g transform="translate(681 153) rotate(0 65.5 13)"><text x="0" y="18" font-family="Virgil, Segoe UI Emoji" font-size="20px" fill="#000000" text-anchor="start" style="white-space: pre;" direction="ltr">docker stats</text></g></svg>